<mxfile host="Electron" agent="Mozilla/5.0 (Windows NT 10.0; Win64; x64) AppleWebKit/537.36 (KHTML, like Gecko) draw.io/28.0.4 Chrome/138.0.7204.97 Electron/37.2.1 Safari/537.36" version="28.0.4">
  <diagram name="Page-1" id="gR84EcsRTjGeQzCYseCe">
    <mxGraphModel dx="1011" dy="501" grid="1" gridSize="10" guides="1" tooltips="1" connect="1" arrows="1" fold="1" page="1" pageScale="1" pageWidth="850" pageHeight="1100" math="0" shadow="0">
      <root>
        <mxCell id="0" />
        <mxCell id="1" parent="0" />
        <mxCell id="rvfMIA_iDDd_MjnlgWBT-1" value="Observability" style="whiteSpace=wrap;strokeWidth=2;" vertex="1" parent="1">
          <mxGeometry x="20" y="2726" width="357" height="128" as="geometry" />
        </mxCell>
        <mxCell id="rvfMIA_iDDd_MjnlgWBT-2" value="CI_CD_and_Post_Deployment" style="whiteSpace=wrap;strokeWidth=2;" vertex="1" parent="1">
          <mxGeometry x="20" y="2055" width="569" height="621" as="geometry" />
        </mxCell>
        <mxCell id="rvfMIA_iDDd_MjnlgWBT-3" value="PR_Review_and_Merge" style="whiteSpace=wrap;strokeWidth=2;" vertex="1" parent="1">
          <mxGeometry x="178" y="1573" width="567" height="432" as="geometry" />
        </mxCell>
        <mxCell id="rvfMIA_iDDd_MjnlgWBT-4" value="Autofix_and_Patch_Engine" style="whiteSpace=wrap;strokeWidth=2;" vertex="1" parent="1">
          <mxGeometry x="297" y="890" width="595" height="633" as="geometry" />
        </mxCell>
        <mxCell id="rvfMIA_iDDd_MjnlgWBT-5" value="CVE_to_Fix_Mapping" style="whiteSpace=wrap;strokeWidth=2;" vertex="1" parent="1">
          <mxGeometry x="432" y="584" width="330" height="256" as="geometry" />
        </mxCell>
        <mxCell id="rvfMIA_iDDd_MjnlgWBT-6" value="Static_and_Dependency_Scanning" style="whiteSpace=wrap;strokeWidth=2;" vertex="1" parent="1">
          <mxGeometry x="122" y="278" width="950" height="256" as="geometry" />
        </mxCell>
        <mxCell id="rvfMIA_iDDd_MjnlgWBT-7" value="Developer_Actions" style="whiteSpace=wrap;strokeWidth=2;" vertex="1" parent="1">
          <mxGeometry x="247" y="20" width="680" height="208" as="geometry" />
        </mxCell>
        <mxCell id="rvfMIA_iDDd_MjnlgWBT-8" value="👨‍💻 Developer Pushes Code" style="whiteSpace=wrap;strokeWidth=2;" vertex="1" parent="1">
          <mxGeometry x="471" y="45" width="253" height="54" as="geometry" />
        </mxCell>
        <mxCell id="rvfMIA_iDDd_MjnlgWBT-9" value="GitHub / GitLab Repo" style="whiteSpace=wrap;strokeWidth=2;" vertex="1" parent="1">
          <mxGeometry x="490" y="149" width="215" height="54" as="geometry" />
        </mxCell>
        <mxCell id="rvfMIA_iDDd_MjnlgWBT-10" value="🔍 Semgrep / CodeQL / Bandit" style="whiteSpace=wrap;strokeWidth=2;" vertex="1" parent="1">
          <mxGeometry x="157" y="303" width="260" height="78" as="geometry" />
        </mxCell>
        <mxCell id="rvfMIA_iDDd_MjnlgWBT-11" value="📦 Snyk / Trivy / OWASP DC" style="whiteSpace=wrap;strokeWidth=2;" vertex="1" parent="1">
          <mxGeometry x="467" y="303" width="260" height="78" as="geometry" />
        </mxCell>
        <mxCell id="rvfMIA_iDDd_MjnlgWBT-12" value="🔑 GitLeaks / TruffleHog (Secrets)" style="whiteSpace=wrap;strokeWidth=2;" vertex="1" parent="1">
          <mxGeometry x="777" y="303" width="260" height="78" as="geometry" />
        </mxCell>
        <mxCell id="rvfMIA_iDDd_MjnlgWBT-13" value="📄 Unified Scan Report (SARIF / JSON)" style="whiteSpace=wrap;strokeWidth=2;" vertex="1" parent="1">
          <mxGeometry x="467" y="431" width="260" height="78" as="geometry" />
        </mxCell>
        <mxCell id="rvfMIA_iDDd_MjnlgWBT-14" value="🧠 CVE-to-Rule Mapping Engine" style="whiteSpace=wrap;strokeWidth=2;" vertex="1" parent="1">
          <mxGeometry x="467" y="609" width="260" height="78" as="geometry" />
        </mxCell>
        <mxCell id="rvfMIA_iDDd_MjnlgWBT-15" value="📘 CWE → Fixer Map (Semgrep, JavaParser, GPT)" style="whiteSpace=wrap;strokeWidth=2;" vertex="1" parent="1">
          <mxGeometry x="467" y="737" width="260" height="78" as="geometry" />
        </mxCell>
        <mxCell id="rvfMIA_iDDd_MjnlgWBT-16" value="Match Found &amp; Eligible?" style="rhombus;strokeWidth=2;whiteSpace=wrap;" vertex="1" parent="1">
          <mxGeometry x="485" y="915" width="225" height="225" as="geometry" />
        </mxCell>
        <mxCell id="rvfMIA_iDDd_MjnlgWBT-17" value="⚙️ Autofix Engine" style="whiteSpace=wrap;strokeWidth=2;" vertex="1" parent="1">
          <mxGeometry x="368" y="1212" width="190" height="54" as="geometry" />
        </mxCell>
        <mxCell id="rvfMIA_iDDd_MjnlgWBT-18" value="🧪 Validate Fix (Tests, Compile)" style="whiteSpace=wrap;strokeWidth=2;" vertex="1" parent="1">
          <mxGeometry x="332" y="1316" width="260" height="78" as="geometry" />
        </mxCell>
        <mxCell id="rvfMIA_iDDd_MjnlgWBT-19" value="📦 Create Patch / PR" style="whiteSpace=wrap;strokeWidth=2;" vertex="1" parent="1">
          <mxGeometry x="355" y="1444" width="215" height="54" as="geometry" />
        </mxCell>
        <mxCell id="rvfMIA_iDDd_MjnlgWBT-20" value="📋 Log + Notify Developer" style="whiteSpace=wrap;strokeWidth=2;" vertex="1" parent="1">
          <mxGeometry x="607" y="1212" width="250" height="54" as="geometry" />
        </mxCell>
        <mxCell id="rvfMIA_iDDd_MjnlgWBT-21" value="🔁 PR Review (Dev + Security)" style="whiteSpace=wrap;strokeWidth=2;" vertex="1" parent="1">
          <mxGeometry x="332" y="1598" width="260" height="78" as="geometry" />
        </mxCell>
        <mxCell id="rvfMIA_iDDd_MjnlgWBT-22" value="Approved?" style="rhombus;strokeWidth=2;whiteSpace=wrap;" vertex="1" parent="1">
          <mxGeometry x="399" y="1726" width="127" height="127" as="geometry" />
        </mxCell>
        <mxCell id="rvfMIA_iDDd_MjnlgWBT-23" value="✅ Merge + Trigger CI" style="whiteSpace=wrap;strokeWidth=2;" vertex="1" parent="1">
          <mxGeometry x="224" y="1926" width="216" height="54" as="geometry" />
        </mxCell>
        <mxCell id="rvfMIA_iDDd_MjnlgWBT-24" value="🛑 Request Changes" style="whiteSpace=wrap;strokeWidth=2;" vertex="1" parent="1">
          <mxGeometry x="490" y="1926" width="207" height="54" as="geometry" />
        </mxCell>
        <mxCell id="rvfMIA_iDDd_MjnlgWBT-25" value="🧪 CI: Test, Lint, Build" style="whiteSpace=wrap;strokeWidth=2;" vertex="1" parent="1">
          <mxGeometry x="219" y="2080" width="225" height="54" as="geometry" />
        </mxCell>
        <mxCell id="rvfMIA_iDDd_MjnlgWBT-26" value="CI Pass?" style="rhombus;strokeWidth=2;whiteSpace=wrap;" vertex="1" parent="1">
          <mxGeometry x="278" y="2184" width="108" height="108" as="geometry" />
        </mxCell>
        <mxCell id="rvfMIA_iDDd_MjnlgWBT-27" value="🚀 CD: Deploy to Staging / Prod" style="whiteSpace=wrap;strokeWidth=2;" vertex="1" parent="1">
          <mxGeometry x="50" y="2377" width="260" height="78" as="geometry" />
        </mxCell>
        <mxCell id="rvfMIA_iDDd_MjnlgWBT-28" value="❗ Alert Dev" style="whiteSpace=wrap;strokeWidth=2;" vertex="1" parent="1">
          <mxGeometry x="385.5" y="2389" width="153" height="54" as="geometry" />
        </mxCell>
        <mxCell id="rvfMIA_iDDd_MjnlgWBT-29" value="🌐 DAST Scan (ZAP / Burp)" style="whiteSpace=wrap;strokeWidth=2;" vertex="1" parent="1">
          <mxGeometry x="158" y="2493" width="255" height="54" as="geometry" />
        </mxCell>
        <mxCell id="rvfMIA_iDDd_MjnlgWBT-30" value="📊 DAST Report" style="whiteSpace=wrap;strokeWidth=2;" vertex="1" parent="1">
          <mxGeometry x="197" y="2597" width="175" height="54" as="geometry" />
        </mxCell>
        <mxCell id="rvfMIA_iDDd_MjnlgWBT-31" value="📈 Monitor App (Sentry, Prometheus, Grafana)" style="whiteSpace=wrap;strokeWidth=2;" vertex="1" parent="1">
          <mxGeometry x="74" y="2751" width="260" height="78" as="geometry" />
        </mxCell>
        <mxCell id="rvfMIA_iDDd_MjnlgWBT-32" value="" style="curved=1;startArrow=none;endArrow=block;exitX=0.5;exitY=1;entryX=0.5;entryY=0;rounded=0;" edge="1" parent="1" source="rvfMIA_iDDd_MjnlgWBT-8" target="rvfMIA_iDDd_MjnlgWBT-9">
          <mxGeometry relative="1" as="geometry">
            <Array as="points" />
          </mxGeometry>
        </mxCell>
        <mxCell id="rvfMIA_iDDd_MjnlgWBT-33" value="" style="curved=1;startArrow=none;endArrow=block;exitX=0;exitY=0.83;entryX=0.5;entryY=0;rounded=0;" edge="1" parent="1" source="rvfMIA_iDDd_MjnlgWBT-9" target="rvfMIA_iDDd_MjnlgWBT-10">
          <mxGeometry relative="1" as="geometry">
            <Array as="points">
              <mxPoint x="287" y="228" />
            </Array>
          </mxGeometry>
        </mxCell>
        <mxCell id="rvfMIA_iDDd_MjnlgWBT-34" value="" style="curved=1;startArrow=none;endArrow=block;exitX=0.5;exitY=1;entryX=0.5;entryY=0;rounded=0;" edge="1" parent="1" source="rvfMIA_iDDd_MjnlgWBT-9" target="rvfMIA_iDDd_MjnlgWBT-11">
          <mxGeometry relative="1" as="geometry">
            <Array as="points" />
          </mxGeometry>
        </mxCell>
        <mxCell id="rvfMIA_iDDd_MjnlgWBT-35" value="" style="curved=1;startArrow=none;endArrow=block;exitX=1;exitY=0.83;entryX=0.5;entryY=0;rounded=0;" edge="1" parent="1" source="rvfMIA_iDDd_MjnlgWBT-9" target="rvfMIA_iDDd_MjnlgWBT-12">
          <mxGeometry relative="1" as="geometry">
            <Array as="points">
              <mxPoint x="907" y="228" />
            </Array>
          </mxGeometry>
        </mxCell>
        <mxCell id="rvfMIA_iDDd_MjnlgWBT-36" value="" style="curved=1;startArrow=none;endArrow=block;exitX=0.5;exitY=1;entryX=0;entryY=0.16;rounded=0;" edge="1" parent="1" source="rvfMIA_iDDd_MjnlgWBT-10" target="rvfMIA_iDDd_MjnlgWBT-13">
          <mxGeometry relative="1" as="geometry">
            <Array as="points">
              <mxPoint x="287" y="406" />
            </Array>
          </mxGeometry>
        </mxCell>
        <mxCell id="rvfMIA_iDDd_MjnlgWBT-37" value="" style="curved=1;startArrow=none;endArrow=block;exitX=0.5;exitY=1;entryX=0.5;entryY=0;rounded=0;" edge="1" parent="1" source="rvfMIA_iDDd_MjnlgWBT-11" target="rvfMIA_iDDd_MjnlgWBT-13">
          <mxGeometry relative="1" as="geometry">
            <Array as="points" />
          </mxGeometry>
        </mxCell>
        <mxCell id="rvfMIA_iDDd_MjnlgWBT-38" value="" style="curved=1;startArrow=none;endArrow=block;exitX=0.5;exitY=1;entryX=1;entryY=0.16;rounded=0;" edge="1" parent="1" source="rvfMIA_iDDd_MjnlgWBT-12" target="rvfMIA_iDDd_MjnlgWBT-13">
          <mxGeometry relative="1" as="geometry">
            <Array as="points">
              <mxPoint x="907" y="406" />
            </Array>
          </mxGeometry>
        </mxCell>
        <mxCell id="rvfMIA_iDDd_MjnlgWBT-39" value="" style="curved=1;startArrow=none;endArrow=block;exitX=0.5;exitY=1;entryX=0.5;entryY=0;rounded=0;" edge="1" parent="1" source="rvfMIA_iDDd_MjnlgWBT-13" target="rvfMIA_iDDd_MjnlgWBT-14">
          <mxGeometry relative="1" as="geometry">
            <Array as="points" />
          </mxGeometry>
        </mxCell>
        <mxCell id="rvfMIA_iDDd_MjnlgWBT-40" value="" style="curved=1;startArrow=none;endArrow=block;exitX=0.5;exitY=1;entryX=0.5;entryY=0;rounded=0;" edge="1" parent="1" source="rvfMIA_iDDd_MjnlgWBT-14" target="rvfMIA_iDDd_MjnlgWBT-15">
          <mxGeometry relative="1" as="geometry">
            <Array as="points" />
          </mxGeometry>
        </mxCell>
        <mxCell id="rvfMIA_iDDd_MjnlgWBT-41" value="" style="curved=1;startArrow=none;endArrow=block;exitX=0.5;exitY=1;entryX=0.5;entryY=0;rounded=0;" edge="1" parent="1" source="rvfMIA_iDDd_MjnlgWBT-15" target="rvfMIA_iDDd_MjnlgWBT-16">
          <mxGeometry relative="1" as="geometry">
            <Array as="points" />
          </mxGeometry>
        </mxCell>
        <mxCell id="rvfMIA_iDDd_MjnlgWBT-42" value="Yes" style="curved=1;startArrow=none;endArrow=block;exitX=0.05;exitY=1;entryX=0.5;entryY=0;rounded=0;" edge="1" parent="1" source="rvfMIA_iDDd_MjnlgWBT-16" target="rvfMIA_iDDd_MjnlgWBT-17">
          <mxGeometry relative="1" as="geometry">
            <Array as="points">
              <mxPoint x="462" y="1176" />
            </Array>
          </mxGeometry>
        </mxCell>
        <mxCell id="rvfMIA_iDDd_MjnlgWBT-43" value="" style="curved=1;startArrow=none;endArrow=block;exitX=0.5;exitY=1;entryX=0.5;entryY=0;rounded=0;" edge="1" parent="1" source="rvfMIA_iDDd_MjnlgWBT-17" target="rvfMIA_iDDd_MjnlgWBT-18">
          <mxGeometry relative="1" as="geometry">
            <Array as="points" />
          </mxGeometry>
        </mxCell>
        <mxCell id="rvfMIA_iDDd_MjnlgWBT-44" value="" style="curved=1;startArrow=none;endArrow=block;exitX=0.5;exitY=1;entryX=0.5;entryY=0;rounded=0;" edge="1" parent="1" source="rvfMIA_iDDd_MjnlgWBT-18" target="rvfMIA_iDDd_MjnlgWBT-19">
          <mxGeometry relative="1" as="geometry">
            <Array as="points" />
          </mxGeometry>
        </mxCell>
        <mxCell id="rvfMIA_iDDd_MjnlgWBT-45" value="No" style="curved=1;startArrow=none;endArrow=block;exitX=0.95;exitY=1;entryX=0.5;entryY=0;rounded=0;" edge="1" parent="1" source="rvfMIA_iDDd_MjnlgWBT-16" target="rvfMIA_iDDd_MjnlgWBT-20">
          <mxGeometry relative="1" as="geometry">
            <Array as="points">
              <mxPoint x="732" y="1176" />
            </Array>
          </mxGeometry>
        </mxCell>
        <mxCell id="rvfMIA_iDDd_MjnlgWBT-46" value="" style="curved=1;startArrow=none;endArrow=block;exitX=0.5;exitY=1;entryX=0.5;entryY=0;rounded=0;" edge="1" parent="1" source="rvfMIA_iDDd_MjnlgWBT-19" target="rvfMIA_iDDd_MjnlgWBT-21">
          <mxGeometry relative="1" as="geometry">
            <Array as="points" />
          </mxGeometry>
        </mxCell>
        <mxCell id="rvfMIA_iDDd_MjnlgWBT-47" value="" style="curved=1;startArrow=none;endArrow=block;exitX=0.5;exitY=1;entryX=0.5;entryY=0;rounded=0;" edge="1" parent="1" source="rvfMIA_iDDd_MjnlgWBT-21" target="rvfMIA_iDDd_MjnlgWBT-22">
          <mxGeometry relative="1" as="geometry">
            <Array as="points" />
          </mxGeometry>
        </mxCell>
        <mxCell id="rvfMIA_iDDd_MjnlgWBT-48" value="Yes" style="curved=1;startArrow=none;endArrow=block;exitX=0;exitY=0.89;entryX=0.5;entryY=0.01;rounded=0;" edge="1" parent="1" source="rvfMIA_iDDd_MjnlgWBT-22" target="rvfMIA_iDDd_MjnlgWBT-23">
          <mxGeometry relative="1" as="geometry">
            <Array as="points">
              <mxPoint x="332" y="1890" />
            </Array>
          </mxGeometry>
        </mxCell>
        <mxCell id="rvfMIA_iDDd_MjnlgWBT-49" value="No" style="curved=1;startArrow=none;endArrow=block;exitX=1;exitY=0.89;entryX=0.5;entryY=0.01;rounded=0;" edge="1" parent="1" source="rvfMIA_iDDd_MjnlgWBT-22" target="rvfMIA_iDDd_MjnlgWBT-24">
          <mxGeometry relative="1" as="geometry">
            <Array as="points">
              <mxPoint x="593" y="1890" />
            </Array>
          </mxGeometry>
        </mxCell>
        <mxCell id="rvfMIA_iDDd_MjnlgWBT-50" value="" style="curved=1;startArrow=none;endArrow=block;exitX=0.5;exitY=1.01;entryX=0.5;entryY=0.01;rounded=0;" edge="1" parent="1" source="rvfMIA_iDDd_MjnlgWBT-23" target="rvfMIA_iDDd_MjnlgWBT-25">
          <mxGeometry relative="1" as="geometry">
            <Array as="points" />
          </mxGeometry>
        </mxCell>
        <mxCell id="rvfMIA_iDDd_MjnlgWBT-51" value="" style="curved=1;startArrow=none;endArrow=block;exitX=0.5;exitY=1.01;entryX=0.5;entryY=0;rounded=0;" edge="1" parent="1" source="rvfMIA_iDDd_MjnlgWBT-25" target="rvfMIA_iDDd_MjnlgWBT-26">
          <mxGeometry relative="1" as="geometry">
            <Array as="points" />
          </mxGeometry>
        </mxCell>
        <mxCell id="rvfMIA_iDDd_MjnlgWBT-52" value="Yes" style="curved=1;startArrow=none;endArrow=block;exitX=0;exitY=0.86;entryX=0.5;entryY=0;rounded=0;" edge="1" parent="1" source="rvfMIA_iDDd_MjnlgWBT-26" target="rvfMIA_iDDd_MjnlgWBT-27">
          <mxGeometry relative="1" as="geometry">
            <Array as="points">
              <mxPoint x="204" y="2329" />
            </Array>
          </mxGeometry>
        </mxCell>
        <mxCell id="rvfMIA_iDDd_MjnlgWBT-53" value="No" style="curved=1;startArrow=none;endArrow=block;exitX=1;exitY=0.86;entryX=0.5;entryY=0.01;rounded=0;" edge="1" parent="1" source="rvfMIA_iDDd_MjnlgWBT-26" target="rvfMIA_iDDd_MjnlgWBT-28">
          <mxGeometry relative="1" as="geometry">
            <Array as="points">
              <mxPoint x="460" y="2329" />
            </Array>
          </mxGeometry>
        </mxCell>
        <mxCell id="rvfMIA_iDDd_MjnlgWBT-54" value="" style="curved=1;startArrow=none;endArrow=block;exitX=0.69;exitY=1;entryX=0.5;entryY=0.01;rounded=0;" edge="1" parent="1" source="rvfMIA_iDDd_MjnlgWBT-27" target="rvfMIA_iDDd_MjnlgWBT-29">
          <mxGeometry relative="1" as="geometry">
            <Array as="points">
              <mxPoint x="285" y="2468" />
            </Array>
          </mxGeometry>
        </mxCell>
        <mxCell id="rvfMIA_iDDd_MjnlgWBT-55" value="" style="curved=1;startArrow=none;endArrow=block;exitX=0.5;exitY=1.01;entryX=0.5;entryY=0.01;rounded=0;" edge="1" parent="1" source="rvfMIA_iDDd_MjnlgWBT-29" target="rvfMIA_iDDd_MjnlgWBT-30">
          <mxGeometry relative="1" as="geometry">
            <Array as="points" />
          </mxGeometry>
        </mxCell>
        <mxCell id="rvfMIA_iDDd_MjnlgWBT-56" value="" style="curved=1;startArrow=none;endArrow=block;exitX=0.31;exitY=1;entryX=0.31;entryY=0;rounded=0;" edge="1" parent="1" source="rvfMIA_iDDd_MjnlgWBT-27" target="rvfMIA_iDDd_MjnlgWBT-31">
          <mxGeometry relative="1" as="geometry">
            <Array as="points">
              <mxPoint x="123" y="2468" />
              <mxPoint x="123" y="2726" />
            </Array>
          </mxGeometry>
        </mxCell>
        <mxCell id="rvfMIA_iDDd_MjnlgWBT-57" value="" style="curved=1;startArrow=none;endArrow=block;exitX=0.5;exitY=1.01;entryX=0.69;entryY=0;rounded=0;" edge="1" parent="1" source="rvfMIA_iDDd_MjnlgWBT-30" target="rvfMIA_iDDd_MjnlgWBT-31">
          <mxGeometry relative="1" as="geometry">
            <Array as="points">
              <mxPoint x="285" y="2726" />
            </Array>
          </mxGeometry>
        </mxCell>
      </root>
    </mxGraphModel>
  </diagram>
</mxfile>
